<?xml version="1.0" standalone="no"?>
<!DOCTYPE svg PUBLIC "-//W3C//DTD SVG 20010904//EN"
 "http://www.w3.org/TR/2001/REC-SVG-20010904/DTD/svg10.dtd">
<svg version="1.0" xmlns="http://www.w3.org/2000/svg"
 width="512.000000pt" height="512.000000pt" viewBox="0 0 512.000000 512.000000"
 preserveAspectRatio="xMidYMid meet">

<g transform="translate(0.000000,512.000000) scale(0.100000,-0.100000)"
fill="#000000" stroke="none">
<path d="M1345 4771 c-58 -10 -119 -45 -154 -88 -65 -78 -62 48 -59 -1999 l3
-1859 22 -40 c12 -22 36 -54 55 -71 59 -56 93 -68 211 -72 l107 -4 0 -49 0
-49 -560 0 -560 0 -31 -28 c-57 -51 -36 -141 38 -161 53 -15 4233 -15 4286 0
45 12 69 46 69 96 0 29 -7 43 -31 65 l-31 28 -560 0 -560 0 0 49 0 49 108 4
c117 4 151 16 210 72 19 17 43 49 55 71 l22 40 3 1859 c3 2047 6 1921 -59
1999 -17 21 -54 50 -83 65 l-51 27 -1205 1 c-663 1 -1223 -1 -1245 -5z m2423
-207 l22 -15 0 -1120 0 -1120 -97 3 -98 3 -5 610 -5 610 -34 63 c-41 75 -94
125 -170 161 l-56 26 -765 0 -765 0 -55 -26 c-78 -37 -131 -87 -171 -161 l-34
-63 -5 -610 -5 -610 -97 -3 -98 -3 0 1120 0 1120 22 15 c20 14 151 16 1208 16
1057 0 1188 -2 1208 -16z m-1848 -1185 l0 -211 34 -34 c32 -32 38 -34 100 -34
l66 0 0 -116 c0 -114 0 -116 29 -145 41 -40 96 -41 134 -1 26 27 27 32 27 145
l0 117 60 0 c32 0 71 5 85 12 50 22 55 49 55 273 l0 205 50 0 50 0 0 -205 c0
-224 5 -251 55 -273 14 -7 53 -12 85 -12 l60 0 0 -117 c0 -113 1 -118 27 -145
38 -40 93 -39 134 1 29 29 29 31 29 145 l0 116 60 0 c131 0 140 18 140 284 l0
206 44 0 c52 0 101 -30 130 -80 21 -34 21 -48 21 -615 l0 -580 -835 0 -835 0
-3 570 -2 570 22 45 c30 58 78 90 134 90 l44 0 0 -211z m390 66 l0 -145 -95 0
-95 0 0 145 0 145 95 0 95 0 0 -145z m690 0 l0 -145 -95 0 -95 0 0 145 0 145
95 0 95 0 0 -145z m790 -1670 l0 -345 -1230 0 -1230 0 0 345 0 345 1230 0
1230 0 0 -345z m0 -724 c0 -150 -3 -182 -16 -195 -14 -14 -138 -16 -1214 -16
-1076 0 -1200 2 -1214 16 -13 13 -16 45 -16 195 l0 179 1230 0 1230 0 0 -179z
m-1870 -461 l0 -50 -100 0 -100 0 0 50 0 50 100 0 100 0 0 -50z m1080 0 l0
-50 -440 0 -440 0 0 50 0 50 440 0 440 0 0 -50z m400 0 l0 -50 -100 0 -100 0
0 50 0 50 100 0 100 0 0 -50z"/>
<path d="M2639 4251 c-21 -22 -29 -39 -29 -66 0 -52 44 -95 97 -95 48 0 78 21
93 64 32 97 -88 170 -161 97z"/>
<path d="M3043 4262 c-49 -39 -49 -122 0 -157 33 -23 91 -19 124 9 23 20 28
32 28 71 0 39 -5 51 -28 71 -34 29 -91 32 -124 6z"/>
<path d="M3429 4251 c-21 -22 -29 -39 -29 -66 0 -84 105 -127 163 -67 58 60
15 162 -68 162 -27 0 -44 -8 -66 -29z"/>
</g>
</svg>
